<?xml version="1.0" encoding="utf-8"?>
<!-- Generator: Adobe Illustrator 18.0.0, SVG Export Plug-In . SVG Version: 6.00 Build 0)  -->
<!DOCTYPE svg PUBLIC "-//W3C//DTD SVG 1.1//EN" "http://www.w3.org/Graphics/SVG/1.1/DTD/svg11.dtd">
<svg version="1.1" id="Layer_1" xmlns="http://www.w3.org/2000/svg" xmlns:xlink="http://www.w3.org/1999/xlink" x="0px" y="0px"
	 viewBox="0 0 64 64" enable-background="new 0 0 64 64" xml:space="preserve">
<path fill="#533090" d="M64.1,64h-64V0h64V64z M22,20.6c-2.6,2.8-3.8,12.8,7.3,12.8h0.3c-6.9-3.8-6-9.5-3.3-13.5
	c0.3-0.5-1.7-5.2-1.8-4.5C24.3,17.4,22.4,19.8,22,20.6z M31.4,33.2C26.9,24.7,36.3,19,36.3,18c0-2.9-1.9-8.5-2.1-7.7
	c-0.7,2.6-4.3,6.4-5,7.2C22.8,24.5,24.4,30.1,31.4,33.2z M32.4,33.2c0.6-8.6,8.9-9.6,9.6-11.3c1.1-2.9-1.2-8.2-1.4-7.8
	c-0.8,2.1-2.5,4-2.5,4c-6.9,5.2-8.2,9.5-5.7,14.9L32.4,33.2z M33.2,33.4c13.4,1.1,12.7-14.3,12.7-14.3c-0.8,2-2.5,3-2.6,3.2
	c-1.7,2.2-8.5,2.4-10,10.9C33.2,33.2,33.2,33.4,33.2,33.4z M27.1,37.2h9.1v-2.7h-9.1V37.2z M30.9,55.8c0.1,0.4,1,0.7,1.3,0l2.2-17.5
	H29L30.9,55.8z"/>
</svg>
