<?xml version="1.0" encoding="utf-8"?>
<!-- Generator: Adobe Illustrator 19.0.1, SVG Export Plug-In . SVG Version: 6.00 Build 0)  -->
<!DOCTYPE svg PUBLIC "-//W3C//DTD SVG 1.1//EN" "http://www.w3.org/Graphics/SVG/1.1/DTD/svg11.dtd">
<svg version="1.1" id="Layer_1" xmlns="http://www.w3.org/2000/svg" xmlns:xlink="http://www.w3.org/1999/xlink" x="0px" y="0px"
	 viewBox="0 0 157.4 27" style="enable-background:new 0 0 157.4 27;" xml:space="preserve">
<style type="text/css">
	.st0{fill:#78818B;}
</style>
<g>
	<g>
		<g>
			<path class="st0" d="M27,27H0V0h27V27L27,27z M12.6,23.8c0,0.2,0.4,0.3,0.5,0l0.9-7.5h-2.3L12.6,23.8L12.6,23.8z M14.8,15.8v-1.1
				h-3.9v1.1H14.8L14.8,15.8z M13.7,14.1c4.9,0.2,5.3-4.3,5.3-6C19,8,19,8,19,8.1c-0.1,0.4-0.8,1.6-2.6,2.4
				C14.8,11.1,13.8,12.7,13.7,14.1C13.7,14.1,13.7,14.1,13.7,14.1z M13.2,13.8C14,10.1,17,10,17.3,9.3c0.4-1.1-0.4-3.1-0.6-3.3
				c0,0,0,0-0.1,0c-0.4,0.9-1.1,1.8-1.6,2.2C14.4,8.7,11.8,10.7,13.2,13.8C13.1,13.9,13.2,13.8,13.2,13.8z M12.6,14
				c-1.7-3.5,1.7-5.8,2.2-6.3c0.1-0.1,0.1-0.1,0.1-0.2c0-1.1-0.6-2.9-0.8-3.2c0,0-0.1,0-0.1,0c-0.3,1.1-1.8,2.7-2.1,3.1
				C9.3,10.4,9.9,12.3,12.6,14C12.6,14,12.7,14,12.6,14z M11.9,14.1c-2.8-1.7-2.5-4-1.3-5.7c0,0,0-0.1,0-0.2c0-0.4-0.5-1.5-0.7-1.7
				c0-0.1-0.1-0.1-0.1,0c0,0.5-0.6,1.7-1.4,3C7.6,10.9,7.5,14,11.9,14.1C11.9,14.1,11.9,14.1,11.9,14.1z"/>
		</g>
		<g>
			<polygon class="st0" points="33.8,10.5 35.1,10.5 37.9,14.2 37.9,10.5 39.2,10.5 39.2,16.5 38.1,16.5 35.1,12.7 35.1,16.5 
				33.8,16.5 33.8,10.5 			"/>
			<polygon class="st0" points="41.6,10.5 46.2,10.5 46.2,11.6 42.9,11.6 42.9,12.9 45.8,12.9 45.8,14.1 42.9,14.1 42.9,15.4 
				46.2,15.4 46.2,16.5 41.6,16.5 41.6,10.5 			"/>
			<polygon class="st0" points="47.8,10.5 49.2,10.5 50.5,14.6 51.9,10.4 53,10.4 54.4,14.6 55.6,10.5 57,10.5 55,16.6 53.8,16.6 
				52.4,12.6 51,16.6 49.9,16.6 47.8,10.5 			"/>
			<polygon class="st0" points="64.1,14.1 61.8,10.5 63.3,10.5 64.8,12.9 66.3,10.5 67.8,10.5 65.4,14.1 65.4,16.5 64.1,16.5 
				64.1,14.1 			"/>
			<path class="st0" d="M73.6,13.5L73.6,13.5c0-1.1-0.8-1.9-1.8-1.9c-1.1,0-1.8,0.8-1.8,1.9v0c0,1,0.8,1.9,1.8,1.9
				C72.9,15.4,73.6,14.6,73.6,13.5L73.6,13.5z M68.6,13.5L68.6,13.5c0-1.8,1.4-3.2,3.2-3.2c1.9,0,3.2,1.4,3.2,3.1v0
				c0,1.7-1.4,3.2-3.2,3.2C69.9,16.7,68.6,15.3,68.6,13.5L68.6,13.5z"/>
			<path class="st0" d="M79.8,13.4c0.7,0,1-0.4,1-0.9v0c0-0.6-0.4-0.9-1.1-0.9h-1.3v1.8H79.8L79.8,13.4z M77.1,10.5h2.8
				c0.8,0,1.4,0.2,1.8,0.6c0.3,0.3,0.5,0.8,0.5,1.4v0c0,1-0.5,1.6-1.3,1.9l1.5,2.2h-1.6l-1.3-2h0h-1v2h-1.3V10.5L77.1,10.5z"/>
			<polygon class="st0" points="84.3,10.5 85.6,10.5 85.6,13.1 88.1,10.5 89.7,10.5 87.2,13 89.8,16.5 88.2,16.5 86.3,14 85.6,14.7 
				85.6,16.5 84.3,16.5 84.3,10.5 			"/>
			<path class="st0" d="M94.9,13.9v-3.5h1.3v3.4c0,1,0.5,1.5,1.3,1.5c0.8,0,1.3-0.5,1.3-1.5v-3.5h1.3v3.4c0,1.8-1,2.7-2.7,2.7
				C95.9,16.6,94.9,15.7,94.9,13.9L94.9,13.9z"/>
			<polygon class="st0" points="102.4,10.5 103.7,10.5 106.5,14.2 106.5,10.5 107.9,10.5 107.9,16.5 106.7,16.5 103.8,12.7 
				103.8,16.5 102.4,16.5 102.4,10.5 			"/>
			<polygon class="st0" points="110.2,10.5 111.6,10.5 111.6,16.5 110.2,16.5 110.2,10.5 			"/>
			<polygon class="st0" points="113.5,10.5 114.9,10.5 116.5,14.7 118.1,10.5 119.6,10.5 117.1,16.6 115.9,16.6 113.5,10.5 			"/>
			<polygon class="st0" points="121.4,10.5 126,10.5 126,11.6 122.7,11.6 122.7,12.9 125.6,12.9 125.6,14.1 122.7,14.1 122.7,15.4 
				126,15.4 126,16.5 121.4,16.5 121.4,10.5 			"/>
			<path class="st0" d="M130.8,13.4c0.7,0,1-0.4,1-0.9v0c0-0.6-0.4-0.9-1-0.9h-1.3v1.8H130.8L130.8,13.4z M128.1,10.5h2.8
				c0.8,0,1.4,0.2,1.8,0.6c0.3,0.3,0.5,0.8,0.5,1.4v0c0,1-0.5,1.6-1.3,1.9l1.5,2.2h-1.6l-1.3-2h0h-1v2h-1.3V10.5L128.1,10.5z"/>
			<path class="st0" d="M134.8,15.7l0.8-0.9c0.6,0.5,1.1,0.7,1.8,0.7c0.5,0,0.9-0.2,0.9-0.6v0c0-0.3-0.2-0.5-1.2-0.8
				c-1.2-0.3-2-0.7-2-1.9v0c0-1.1,0.9-1.8,2.1-1.8c0.9,0,1.6,0.3,2.3,0.8l-0.7,1c-0.5-0.4-1.1-0.6-1.6-0.6c-0.5,0-0.8,0.2-0.8,0.5v0
				c0,0.4,0.3,0.5,1.3,0.8c1.2,0.3,1.9,0.8,1.9,1.8v0c0,1.2-0.9,1.9-2.2,1.9C136.5,16.6,135.6,16.3,134.8,15.7L134.8,15.7z"/>
			<polygon class="st0" points="141.8,10.5 143.1,10.5 143.1,16.5 141.8,16.5 141.8,10.5 			"/>
			<polygon class="st0" points="146.9,11.7 145.1,11.7 145.1,10.5 150.1,10.5 150.1,11.7 148.3,11.7 148.3,16.5 146.9,16.5 
				146.9,11.7 			"/>
			<polygon class="st0" points="153.7,14.1 151.4,10.5 152.9,10.5 154.4,12.9 155.9,10.5 157.4,10.5 155.1,14.1 155.1,16.5 
				153.7,16.5 153.7,14.1 			"/>
		</g>
	</g>
</g>
</svg>
