<?xml version="1.0" encoding="utf-8"?>
<!-- Generator: Adobe Illustrator 18.1.1, SVG Export Plug-In . SVG Version: 6.00 Build 0)  -->
<svg version="1.1" id="Layer_1" xmlns="http://www.w3.org/2000/svg" xmlns:xlink="http://www.w3.org/1999/xlink" x="0px" y="0px"
	 viewBox="0 0 2000 2000" enable-background="new 0 0 2000 2000" xml:space="preserve">
<g>
	<polyline fill="#FFFFFF" points="225.1,1057.1 753.6,942.9 1282.2,1057.1 1810.8,942.9 	"/>
	<g>
		<g enable-background="new    ">
			<g>
				<polygon fill="#E2E2E2" points="683.1,1669.3 825.4,227.2 1352.7,330 1210.5,1772.1 				"/>
				<g enable-background="new    ">
					<defs>
						<polygon id="SVGID_1_" enable-background="new    " points="683.1,1669.3 825.4,227.2 1352.7,330 1210.5,1772.1 						"/>
					</defs>
					<clipPath id="SVGID_2_">
						<use xlink:href="#SVGID_1_"  overflow="visible"/>
					</clipPath>
					<g clip-path="url(#SVGID_2_)">
						<g>
							<g>
								<g>
									<g>
										<defs>
											<polyline id="SVGID_3_" points="1210,1779.1 683.4,1676.4 825.7,234.4 1352.3,337 1210,1779.1 											"/>
										</defs>
										<clipPath id="SVGID_4_">
											<use xlink:href="#SVGID_3_"  overflow="visible"/>
										</clipPath>
										<path clip-path="url(#SVGID_4_)" fill="#BD174E" d="M1213.8,1740.6l-8.4-1.6l-0.4,3.8l-9.8-1.9l0.4-3.8l-240.9-47
											l-0.4,3.8l-9.8-1.9l0.4-3.8l-240.9-47l-0.4,3.8l-9.8-1.9l0.4-3.8l-7.2-1.4l-0.8,7.7l526.6,102.7L1213.8,1740.6
											 M1350.6,353.9L824,251.3l-0.8,7.7l7.2,1.4l0.4-3.8l9.8,1.9l-0.4,3.8l240.9,47l0.4-3.8l9.8,1.9l-0.4,3.8l240.9,47l0.4-3.8
											l9.8,1.9l-0.4,3.8l8.4,1.6L1350.6,353.9"/>
										<path clip-path="url(#SVGID_4_)" fill="#BD174E" d="M717.2,1408.3l-7.2-1.4l-0.8,7.7l7.2,1.4L717.2,1408.3 M928.2,1449.4
											L727,1410.2l-0.8,7.7l202.2,39.4L928.2,1449.4 M1218.4,1506l-201.5-39.3l-1.9,7.5l202.6,39.5L1218.4,1506 M1236.6,1509.5
											l-8.4-1.6l-0.8,7.7l8.4,1.6L1236.6,1509.5"/>
										<path clip-path="url(#SVGID_4_)" fill="#BD174E" d="M740,1177.1l-7.2-1.4l-0.8,7.7l7.2,1.4L740,1177.1 M920.3,1212.3
											L749.8,1179l-0.8,7.7l171.6,33.4L920.3,1212.3 M1241.2,1274.9l-166-32.4l-1.9,7.5l167.1,32.6L1241.2,1274.9
											 M1259.4,1278.4l-8.4-1.6l-0.8,7.7l8.4,1.6L1259.4,1278.4"/>
										<path clip-path="url(#SVGID_4_)" fill="#BD174E" d="M762.8,946l-7.2-1.4l-0.8,7.7l7.2,1.4L762.8,946 M823,957.8l-50.5-9.8
											l-0.8,7.7l91,17.7C848.5,968.5,835.3,963.3,823,957.8 M990,990.3l-41.5-8.1c3,2.1,6.1,4.2,9.2,6.3l6.9,4.6l44.9,8.8
											l-0.6-0.3C1002.5,997.9,996.2,994.1,990,990.3 M1067,1005.3l-17.1-3.3c-0.2,1.2-0.5,2.3-0.7,3.5l-11.7-2.6l0.3-3.3
											l-14.7-2.9l-0.8,7.7l40,7.8c0.5-3.2,2.1-5.6,4.5-6.7C1066.9,1005.5,1066.9,1005.4,1067,1005.3 M1264,1043.7l-32.6-6.4
											c-11.8,0.8-23.8,1.1-36.2,0.8l68.1,13.3L1264,1043.7 M1282.2,1047.3l-8.4-1.6l-0.8,7.7l8.4,1.6L1282.2,1047.3"/>
										<path clip-path="url(#SVGID_4_)" fill="#BD174E" d="M1035.7,769.4c-0.5,0.6-1,1.2-1.5,1.8l1.3,0.2L1035.7,769.4
											 M837.4,725l-15.8-3.1c-0.9,2.4-1.7,4.9-2.5,7.3l15.8,3.1C835.7,729.9,836.5,727.5,837.4,725 M1057.9,768l-11.9-2.3
											l-0.8,7.7l7,1.4C1054.1,772.5,1056,770.2,1057.9,768 M1286.9,812.6l-16.4-3.2c-5.7,1.4-11.4,2.9-17.3,4.5l32.9,6.4
											L1286.9,812.6 M1305,816.2l-8.4-1.6l-0.5,4.9c2.9-0.7,5.9-1.3,8.8-2L1305,816.2"/>
										<path clip-path="url(#SVGID_4_)" fill="#BD174E" d="M808.4,483.8l-7.2-1.4l-0.8,7.7l7.2,1.4L808.4,483.8 M836.7,489.3
											l-18.5-3.6l-0.8,7.7l15.3,3c0.3-1,0.5-2,0.7-2.9l0-0.2C834.1,491.1,835.3,489.9,836.7,489.3 M1043.9,529.7l-198-38.6
											c2.1,1.8,4.3,4.7,6.9,9.2l182.5,35.6C1038.2,533.9,1041,531.8,1043.9,529.7 M1309.7,581.5l-102.2-19.9
											c0.4,2.7,0.8,5.3,1.1,8.1l100.3,19.6L1309.7,581.5 M1326,584.7l-6.6-1.3l-0.8,7.7l1.4,0.3
											C1322,589.2,1324,586.9,1326,584.7"/>
										<path clip-path="url(#SVGID_4_)" fill="#BD174E" d="M1275.2,1031.6c-3.3,0.7-6.7,1.3-10.1,1.9l-1,10.3l-0.8,7.7l-22,223.4
											l-0.8,7.7l-22,223.4l-0.8,7.7l-22,223.4l-0.4,3.8l9.8,1.9l0.4-3.8l22-223.4l0.8-7.7l22-223.4l0.8-7.7l22-223.4l0.8-7.7
											L1275.2,1031.6 M1297.7,803.1c-3.3,0.7-6.7,1.5-10.2,2.3l-0.7,7.2l-0.8,7.7l-0.1,1.5c3.4-0.8,6.8-1.6,10.2-2.4l0.5-4.9
											L1297.7,803.1 M1341.8,356.1l-9.8-1.9l-0.4,3.8l-22,223.4l-0.8,7.7l-1.5,15c3.7-3.6,7.4-7.3,11-11.2l0.2-1.9l0.8-7.7
											l22-223.4L1341.8,356.1"/>
										<path clip-path="url(#SVGID_4_)" fill="#BD174E" d="M963.7,1599.7c-1.7-0.1-3.5-0.3-5.3-0.6l0,0c-1.5-0.3-3-0.7-4.5-1.1
											l-8.9,90.3l-0.4,3.8l9.8,1.9l0.4-3.8L963.7,1599.7 M1012.2,1108.1l-9.8-1.9l-1.9,19.2l9.8,1.9L1012.2,1108.1
											 M1012.6,1003.7l-2.3,23.4l9.8,1.9l2-19.9L1012.6,1003.7 M1018.7,941l-4.8,48.9c1.1,2.3,2.2,4.6,3.3,7l5,10.2l0.3-2.5
											l0.8-7.7l2.9-29.8C1023.2,958.1,1020.8,949.4,1018.7,941 M1046.9,756.5c-3.9,4.2-7.6,8.4-11.2,12.8l-0.2,2.1l-3.3,33.6
											c1.4-2.5,2.8-5,4.3-7.5c2.4-4,4.9-7.9,7.6-11.7l1.2-12.4l0.8-7.7L1046.9,756.5 M1091.2,307.3l-9.8-1.9l-0.4,3.8
											l-20.5,208.1c3.6-2.7,7.2-5.5,10.8-8.4l19.5-197.9L1091.2,307.3"/>
										<path clip-path="url(#SVGID_4_)" fill="#BD174E" d="M764.9,925.1l-2.1,21l-0.8,7.7l-22,223.4l-0.8,7.7l-22,223.4l-0.8,7.7
											l-22,223.4l-0.4,3.8l9.8,1.9l0.4-3.8l22-223.4l0.8-7.7l22-223.4l0.8-7.7l22-223.4l0.8-7.7l1.6-16.6
											C771,929.3,767.9,927.2,764.9,925.1 M840.6,258.4l-9.8-1.9l-0.4,3.8l-22,223.4l-0.8,7.7l-5.7,57.8
											c4-4.8,7.8-9.7,11.4-14.7l4.1-41.2l0.8-7.7l22-223.4L840.6,258.4"/>
										<path clip-path="url(#SVGID_4_)" fill="#4F257A" d="M842.9,504.1c-8.7,26.6-30.4,52.4-51.1,73.5l-32.7,331.3
											c50.1,39.7,116.4,61.8,174.4,74.2c-75-54.4-119-112.5-130.8-172.7c-13-66.2,14.4-134.1,77.1-191.2
											c1.8-3.1-0.5-22.2-14.2-61.3C856.7,532.7,848.2,513.8,842.9,504.1"/>
										<path clip-path="url(#SVGID_4_)" fill="#E2E2E2" d="M841.3,488.8c-0.6-0.1-2.7-0.4-4.7,0.4c-1.3,0.6-2.6,1.8-3.2,4l0,0.2
											c-0.2,1-0.5,2-0.7,2.9c-3.5,13-10.6,25.9-19.4,38.3c-3.6,5-7.4,9.9-11.4,14.7c-2.7,3.2-5.5,6.4-8.3,9.5l-1.9,18.8
											c20.7-21.1,42.4-46.8,51.1-73.5c5.3,9.7,13.8,28.6,22.6,53.8c13.7,39.1,16,58.3,14.2,61.3c-62.7,57.1-90.1,125-77.1,191.2
											c11.9,60.3,55.8,118.3,130.8,172.7c-57.9-12.4-124.3-34.5-174.4-74.2l-1.1,11.2c2.2,1.7,4.5,3.3,6.9,5
											c3,2.1,6.1,4.2,9.3,6.3c14.2,9.3,30.4,18.1,48.8,26.4c12.3,5.5,25.5,10.7,39.8,15.6c24.1,8.2,51.2,15.5,81.7,21.4
											l31.5,6.1l-11.4-7.7l-6.9-4.6c-3.1-2.1-6.2-4.2-9.2-6.3C871.2,928,826,870.2,814.3,810.4c-5.3-27-3.6-54.4,4.9-81.2
											c0.8-2.5,1.6-4.9,2.5-7.3c12.2-33.7,35-66.3,67.6-96l0.2-0.2c2-2.1,7.4-7.6-8.3-56.2c-8.4-25.8-19.7-53.8-27.6-68
											c-0.2-0.4-0.5-0.9-0.7-1.3c-2.6-4.5-4.7-7.4-6.9-9.2C844.5,489.9,843,489.2,841.3,488.8"/>
										<path clip-path="url(#SVGID_4_)" fill="#4F257A" d="M1161.7,430.4c-29.9,56.5-127.8,120.7-165.4,145.3
											c-4.2,2.7-7.4,4.9-9.8,6.5l-0.1,0.1c-54.9,35.4-95,72.4-119.2,110.2c-23.1,36-31.8,72.9-25.9,109.5
											c5.4,33.4,23,66.8,52.3,99.2c26.3,29.1,62.2,57.5,106.6,84.6c-34.6-79.6-28.2-151.6,19-214.3
											c41.3-54.8,103.4-90.1,144.4-113.5c16.5-9.4,35.3-20.1,35.9-24c2.9-29-2.2-74.8-13.9-125.9
											C1176.9,469.5,1167.4,441.8,1161.7,430.4"/>
										<path clip-path="url(#SVGID_4_)" fill="#E2E2E2" d="M1000.2,985.6c-44.4-27-80.2-55.4-106.6-84.6
											c-29.3-32.4-46.9-65.8-52.3-99.2c-5.9-36.6,2.8-73.4,25.9-109.5c24.2-37.8,64.3-74.8,119.2-110.2l0.1-0.1
											c2.3-1.6,5.6-3.7,9.8-6.5c37.6-24.6,135.5-88.8,165.4-145.3c5.7,11.5,15.2,39.1,24,77.6c11.7,51,16.8,96.9,13.9,125.9
											c-0.6,3.9-19.4,14.6-35.9,24c-41.1,23.4-103.2,58.7-144.4,113.5C972,834,965.6,906.1,1000.2,985.6 M1161.3,416.6
											c-1.4-0.3-6-0.8-8.1,4c-13.3,29-47.1,60.9-81.9,88.4c-3.6,2.8-7.2,5.6-10.8,8.4c-5.6,4.3-11.2,8.4-16.6,12.4
											c-2.9,2.1-5.8,4.2-8.6,6.2c-18.9,13.4-35.9,24.6-47.3,32c-4.2,2.7-7.4,4.9-9.8,6.5c-55.9,36-96.8,73.9-121.6,112.6
											c-8.1,12.6-14.4,25.3-19.1,38.1c-0.9,2.4-1.7,4.9-2.5,7.3c-7.2,22.9-9,46.1-5.3,69.2c5.7,35.2,24.2,70.3,54.9,104.3
											c26.4,29.2,61.8,57.5,105.4,84.5c6.1,3.8,12.5,7.6,18.9,11.3l0.6,0.3l3,1.8l9.4,5.4l1.7,1l-1.5-3.1l-5-10.2
											c-1.1-2.3-2.2-4.7-3.3-7c-19.2-41.8-26.9-81.7-22.9-118.7c3.5-33.1,16.5-64.7,38.6-94.1c1.5-2,3.1-4,4.6-6
											c0.5-0.6,1-1.2,1.5-1.8c3.6-4.4,7.4-8.7,11.2-12.8c39.1-42,89.6-70.8,124.6-90.7c27.1-15.4,39.1-22.6,39.8-29.8
											c2-19.9,0.3-43.8-2.7-66.5c-0.4-2.7-0.7-5.4-1.1-8.1c-3.6-24.4-8.4-46.4-11.4-59c-5.1-21.7-11-42.1-16.5-57.4
											C1170.5,420.3,1165.8,417.5,1161.3,416.6"/>
										<path clip-path="url(#SVGID_4_)" fill="#4F257A" d="M1326.2,601.8c-28.2,29.5-58.2,49.6-59.9,50.7l-0.4,0.3l-0.5,0.2
											c-58,23.1-103.8,46.4-139.9,71.2c-35.9,24.7-61.5,50.4-78.3,78.5c-29.6,49.7-31.2,106.6-4.5,178.1
											c7.8-28.2,19.9-53.4,36.3-75.2c17.7-23.6,40.8-43.9,68.9-60.5c51.3-30.4,111.2-43.7,154.9-53.4c1.6-0.4,3.2-0.7,4.8-1.1
											L1326.2,601.8"/>
										<path clip-path="url(#SVGID_4_)" fill="#E2E2E2" d="M1328.1,582.2c-0.7,0.8-1.4,1.7-2.1,2.5c-2,2.3-4,4.5-6,6.7
											c-0.5,0.6-1,1.1-1.5,1.7c-3.7,3.9-7.4,7.6-11,11.2c-23.3,22.6-45.8,38.1-49.1,40.3c-58.5,23.3-104.7,46.8-141.3,72
											c-24,16.5-43.6,33.5-59.1,51.4c-1.9,2.2-3.8,4.5-5.6,6.7c-2.9,3.6-5.7,7.3-8.3,11c-2.7,3.9-5.2,7.8-7.6,11.7
											c-1.5,2.5-2.9,5-4.3,7.5c-21.2,39.8-25.7,84-13.4,135.9c2,8.5,4.5,17.2,7.4,26.1c3.4,10.3,7.3,20.8,11.9,31.7l-0.1,0.9
											l-0.3,3.3l11.7,2.6c0.2-1.2,0.4-2.4,0.7-3.5c6.9-34.5,20.1-65,39.3-90.5c17-22.7,39.4-42.4,66.4-58.4
											c31.4-18.6,65.4-30.4,97.6-39.2c5.8-1.6,11.6-3.1,17.3-4.5c5.8-1.4,11.5-2.8,17.1-4.1c3.4-0.8,6.8-1.6,10.2-2.3
											c3-0.7,5.9-1.3,8.8-2l1-10.5c-1.6,0.4-3.2,0.7-4.8,1.1c-43.7,9.7-103.6,23-154.9,53.4c-28,16.6-51.2,37-68.9,60.5
											c-16.4,21.8-28.5,47.1-36.3,75.2c-26.6-71.5-25.1-128.4,4.5-178.1c16.8-28.1,42.4-53.8,78.3-78.5
											c36.2-24.9,81.9-48.2,139.9-71.2l0.5-0.2l0.4-0.3c1.7-1.2,31.8-21.2,59.9-50.7L1328.1,582.2"/>
										<path clip-path="url(#SVGID_4_)" fill="#4F257A" d="M1303.8,827.9c-83.2,18.8-183.4,52.7-226.3,183.6l-0.1,0.3
											c11.3,2.8,22.4,5.3,33.2,7.4l0.1,0c65.4,12.7,123.7,12.6,174.2-0.2L1303.8,827.9"/>
										<path clip-path="url(#SVGID_4_)" fill="#E2E2E2" d="M1304.9,817.4c-2.9,0.6-5.8,1.3-8.8,2c-3.4,0.8-6.8,1.6-10.2,2.4
											c-33.6,8.2-69.9,19.5-103.4,38.7c-55.7,31.9-93.5,79.3-115.6,144.8c0,0.1-0.1,0.2-0.1,0.3c-2.3,1.1-4,3.5-4.5,6.7
											c0,0.2-0.1,0.5-0.1,0.8l-0.4,4.2l5.3,1.4c14.4,3.8,28.7,7.1,42.6,9.8l0.1,0c29.9,5.8,58.4,9.1,85.4,9.7
											c12.4,0.3,24.5,0,36.2-0.8c11.5-0.8,22.7-2.1,33.6-3.9c3.4-0.6,6.8-1.2,10.1-1.9c2.9-0.6,5.9-1.2,8.7-1.9l1-10.6
											c-50.5,12.9-108.8,13-174.2,0.2l-0.1,0c-10.8-2.1-22-4.6-33.2-7.4l0.1-0.3c42.9-130.9,143.1-164.8,226.3-183.6
											L1304.9,817.4"/>
										<polyline clip-path="url(#SVGID_4_)" fill="#4F257A" points="1153.9,1064.6 878,1010.8 872,1071.4 1147.9,1125.2 
											1153.9,1064.6 										"/>
										<path clip-path="url(#SVGID_4_)" fill="#E2E2E2" d="M872,1071.4l6-60.6l275.9,53.8l-6,60.6L872,1071.4 M1166.5,1057.6
											l-146.5-28.6l-9.8-1.9l-143-27.9l-7.8,79.1l143,27.9l9.8,1.9l146.5,28.6L1166.5,1057.6"/>
										<path clip-path="url(#SVGID_4_)" fill="#4F257A" d="M1086.5,1151.6L929,1120.9l15.2,458.8c1,3.6,7.6,8.7,15.1,10.2
											c4.4,0.9,10.4,0.7,14.5-4.8L1086.5,1151.6"/>
										<path clip-path="url(#SVGID_4_)" fill="#E2E2E2" d="M959.3,1589.9c-7.5-1.5-14.2-6.6-15.1-10.2L929,1120.9l157.5,30.7
											l-112.7,433.5C969.7,1590.6,963.7,1590.7,959.3,1589.9 M1100.7,1145l-90.4-17.6l-9.8-1.9l-83.6-16.3l3.4,103.1l0.3,7.9
											l7.6,229.2l0.3,7.9l4,121.5l0,0.3l0.1,0.3c1.5,7.4,10.6,15.1,21.4,18.6c1.5,0.5,3,0.9,4.5,1.1l0,0
											c1.8,0.4,3.6,0.6,5.3,0.6c8.9,0.4,16.4-2.9,20.9-9.5l0.4-0.5l30-115.5l1.9-7.5l56.4-216.7l1.9-7.5L1100.7,1145"/>
									</g>
								</g>
							</g>
						</g>
					</g>
				</g>
			</g>
			<g>
				<polygon fill="#CCCCCC" points="156.5,1712.8 298.8,270.7 825.4,227.2 683.1,1669.3 				"/>
				<g enable-background="new    ">
					<defs>
						<polygon id="SVGID_5_" enable-background="new    " points="156.5,1712.8 298.8,270.7 825.4,227.2 683.1,1669.3 						"/>
					</defs>
					<clipPath id="SVGID_6_">
						<use xlink:href="#SVGID_5_"  overflow="visible"/>
					</clipPath>
					<g clip-path="url(#SVGID_6_)">
						<g>
							<g>
								<g>
									<g>
										<defs>
											<polyline id="SVGID_7_" points="688.1,1673.5 162.3,1716.9 304.6,274.8 830.4,231.4 688.1,1673.5 											"/>
										</defs>
										<clipPath id="SVGID_8_">
											<use xlink:href="#SVGID_7_"  overflow="visible"/>
										</clipPath>
										<polyline clip-path="url(#SVGID_8_)" fill="#AF1348" points="828.5,250.6 335.2,291.3 197.6,1685.7 690.9,1645 
											691.6,1637.3 458.4,1656.6 458,1660.4 448.2,1661.2 448.6,1657.4 208.1,1677.2 230.2,1453.8 225.3,1454.2 226.1,1446.5 
											230.9,1446.1 253,1222.7 248.1,1223.1 248.9,1215.4 253.7,1215 275.8,991.6 270.9,992 271.7,984.3 276.6,983.9 
											298.6,760.5 293.7,760.9 294.5,753.2 299.4,752.8 321.4,529.3 316.5,529.7 317.3,522 322.2,521.6 344.2,298.2 
											584.7,278.4 585.1,274.5 594.8,273.7 594.4,277.6 827.7,258.3 828.5,250.6 										"/>
										<path clip-path="url(#SVGID_8_)" fill="#AF1348" d="M471.4,1426.3l-240.5,19.8l-4.9,0.4l-0.8,7.7l4.9-0.4l240.5-19.8
											L471.4,1426.3 M714.5,1406.2l-233.3,19.3l-0.8,7.7l233.3-19.3L714.5,1406.2"/>
										<path clip-path="url(#SVGID_8_)" fill="#AF1348" d="M494.2,1195.2L253.7,1215l-4.9,0.4l-0.8,7.7l4.9-0.4l240.5-19.8
											L494.2,1195.2 M737.3,1175.1L504,1194.3l-0.8,7.7l233.3-19.3L737.3,1175.1"/>
										<path clip-path="url(#SVGID_8_)" fill="#AF1348" d="M517,964l-240.5,19.8l-4.9,0.4l-0.8,7.7l4.9-0.4l240.5-19.8L517,964
											 M760.1,944l-233.3,19.3l-0.8,7.7l233.3-19.3L760.1,944"/>
										<path clip-path="url(#SVGID_8_)" fill="#AF1348" d="M539.8,732.9l-240.5,19.8l-4.9,0.4l-0.8,7.7l4.9-0.4l240.5-19.8
											L539.8,732.9 M686.3,720.8l-136.7,11.3l-0.8,7.7l135.1-11.1c0.3-1.1,0.6-2.1,0.9-3.2C685.3,723.9,685.8,722.4,686.3,720.8
											"/>
										<path clip-path="url(#SVGID_8_)" fill="#AF1348" d="M562.6,501.8l-240.5,19.8l-4.9,0.4l-0.8,7.7l4.9-0.4l240.5-19.8
											L562.6,501.8 M805.7,481.7L572.4,501l-0.8,7.7l233.3-19.3L805.7,481.7"/>
										<polyline clip-path="url(#SVGID_8_)" fill="#AF1348" points="594.8,273.7 585.1,274.5 584.7,278.4 562.6,501.8 
											561.9,509.5 539.8,732.9 539.1,740.6 517,964 516.3,971.7 494.2,1195.2 493.5,1202.8 471.4,1426.3 470.7,1434 
											448.6,1657.4 448.2,1661.2 458,1660.4 458.4,1656.6 480.4,1433.2 481.2,1425.5 503.2,1202 504,1194.3 526,970.9 
											526.8,963.2 548.8,739.8 549.6,732.1 571.6,508.7 572.4,501 594.4,277.6 594.8,273.7 										"/>
										<path clip-path="url(#SVGID_8_)" fill="#492072" d="M796.3,576.9c-7.6,9.6-15,18.5-21.6,26.5
											c-7.9,9.5-14.7,17.8-18.2,22.9l-0.4,0.6l-0.6,0.5C730,650,707.9,686.9,696.2,726c-13.3,44.8-11.6,88,5,121.7
											c13.6,27.8,35.7,47.3,62.4,60.6L796.3,576.9"/>
										<path clip-path="url(#SVGID_8_)" fill="#CCCCCC" d="M798.1,558.1c-11.3,15.2-23,29.4-32.9,41.2
											c-8.1,9.8-14.6,17.6-18.5,23.2c-25.8,23.1-48.1,59.5-60.5,98.3c-0.5,1.5-1,3.1-1.4,4.6c-0.3,1.1-0.6,2.1-0.9,3.2
											c-12.8,45.4-10.6,89.2,6.3,123.7c11.7,23.8,33.2,49.2,72.3,67.1l1.1-11.2c-26.7-13.3-48.7-32.8-62.4-60.6
											c-16.6-33.7-18.3-76.9-5-121.7c11.6-39.1,33.8-75.9,59.3-98.5l0.6-0.5l0.4-0.6c3.4-5.1,10.3-13.3,18.2-22.9
											c6.6-7.9,14-16.9,21.6-26.5L798.1,558.1"/>
									</g>
								</g>
							</g>
						</g>
					</g>
				</g>
			</g>
			<g>
				<polygon fill="#BBBBBB" points="683.1,1669.3 1210.5,1772.1 1737.1,1729.3 1210.5,1772.8 683.1,1670 156.5,1712.8 				"/>
			</g>
			<g>
				<polygon fill="#CCCCCC" points="1210.5,1772.1 1352.7,330 1879.4,287.2 1737.1,1729.3 				"/>
				<g enable-background="new    ">
					<defs>
						<polygon id="SVGID_9_" enable-background="new    " points="1210.5,1772.1 1352.7,330 1879.4,287.2 1737.1,1729.3 						"/>
					</defs>
					<clipPath id="SVGID_10_">
						<use xlink:href="#SVGID_9_"  overflow="visible"/>
					</clipPath>
					<g clip-path="url(#SVGID_10_)">
						<g>
							<g>
								<g>
									<g>
										<defs>
											<polyline id="SVGID_11_" points="1706.2,1731.3 1180.2,1774 1322.5,332 1848.5,289.2 1706.2,1731.3 											"/>
										</defs>
										<clipPath id="SVGID_12_">
											<use xlink:href="#SVGID_11_"  overflow="visible"/>
										</clipPath>
										<polyline clip-path="url(#SVGID_12_)" fill="#AF1348" points="1838.3,314.2 1320.1,356.3 1319.4,364 1327.2,363.4 
											1327.5,359.5 1337.3,358.8 1336.9,362.6 1577.5,343 1577.9,339.2 1587.6,338.4 1587.2,342.3 1827.8,322.7 1805.8,546.1 
											1810.6,545.7 1809.9,553.4 1805,553.8 1783,777.2 1787.8,776.8 1787.1,784.5 1782.2,784.9 1760.1,1008.4 1765,1008 
											1764.3,1015.7 1759.4,1016.1 1737.3,1239.5 1742.2,1239.1 1741.4,1246.8 1736.6,1247.2 1714.5,1470.6 1719.4,1470.2 
											1718.6,1477.9 1713.8,1478.3 1691.7,1701.7 1451.1,1721.3 1450.8,1725.1 1441,1725.9 1441.4,1722.1 1200.8,1741.6 
											1200.4,1745.5 1190.7,1746.3 1191.1,1742.4 1183.3,1743 1182.5,1750.7 1700.7,1708.6 1838.3,314.2 										"/>
										<path clip-path="url(#SVGID_12_)" fill="#AF1348" d="M1213.9,1511.3l-7.8,0.6l-0.8,7.7l7.8-0.6L1213.9,1511.3
											 M1464.2,1491l-240.6,19.6l-0.8,7.7l240.6-19.6L1464.2,1491 M1719.4,1470.2l-4.9,0.4l-240.6,19.6l-0.8,7.7l240.6-19.6
											l4.9-0.4L1719.4,1470.2"/>
										<path clip-path="url(#SVGID_12_)" fill="#AF1348" d="M1236.7,1280.2l-7.8,0.6l-0.8,7.7l7.8-0.6L1236.7,1280.2
											 M1487,1259.8l-240.6,19.6l-0.8,7.7l240.6-19.6L1487,1259.8 M1742.2,1239.1l-4.9,0.4l-240.6,19.6l-0.8,7.7l240.6-19.6
											l4.9-0.4L1742.2,1239.1"/>
										<path clip-path="url(#SVGID_12_)" fill="#AF1348" d="M1259.5,1049.1l-7.8,0.6l-0.8,7.7l7.8-0.6L1259.5,1049.1
											 M1509.8,1028.7l-240.6,19.6l-0.8,7.7l240.6-19.6L1509.8,1028.7 M1765,1008l-4.9,0.4l-240.6,19.6l-0.8,7.7l240.6-19.6
											l4.9-0.4L1765,1008"/>
										<path clip-path="url(#SVGID_12_)" fill="#AF1348" d="M1532.6,797.6l-55.2,4.5c-1,2.6-2,5.3-3,7.9l57.4-4.7L1532.6,797.6
											 M1787.8,776.8l-4.9,0.4l-240.6,19.6l-0.8,7.7l240.6-19.6l4.9-0.4L1787.8,776.8"/>
										<path clip-path="url(#SVGID_12_)" fill="#AF1348" d="M1305.1,586.8l-7.8,0.6l-0.8,7.7l7.8-0.6L1305.1,586.8 M1321.4,585.5
											l-6.6,0.5l-0.8,7.7l1.4-0.1C1317.5,590.9,1319.4,588.2,1321.4,585.5 M1555.4,566.5l-184.6,15c1,2.4,1.9,4.8,2.8,7.4
											l181-14.7L1555.4,566.5 M1810.6,545.7l-4.9,0.4l-240.6,19.6l-0.8,7.7l240.6-19.6l4.9-0.4L1810.6,545.7"/>
										<polyline clip-path="url(#SVGID_12_)" fill="#AF1348" points="1587.6,338.4 1577.9,339.2 1577.5,343 1555.4,566.5 
											1554.7,574.2 1532.6,797.6 1531.9,805.3 1509.8,1028.7 1509.1,1036.4 1487,1259.8 1486.3,1267.5 1464.2,1491 
											1463.5,1498.6 1441.4,1722.1 1441,1725.9 1450.8,1725.1 1451.1,1721.3 1473.2,1497.8 1473.9,1490.2 1496,1266.7 
											1496.8,1259 1518.8,1035.6 1519.6,1027.9 1541.6,804.5 1542.4,796.8 1564.4,573.4 1565.2,565.7 1587.2,342.3 
											1587.6,338.4 										"/>
										<path clip-path="url(#SVGID_12_)" fill="#AF1348" d="M1270.6,1034.2c-3.3,1.6-6.7,3.1-10.1,4.6l-1,10.3l-0.8,7.7
											l-22,223.4l-0.8,7.7l-22,223.4l-0.8,7.7l-22,223.4l-0.4,3.8l9.7-0.8l0.4-3.8l22-223.4l0.8-7.7l22-223.4l0.8-7.7l22-223.4
											l0.8-7.7L1270.6,1034.2 M1337.3,358.8l-9.7,0.8l-0.4,3.8l-22,223.4l-0.8,7.7l-1.5,15c3.7-4.5,7.4-9.1,11-13.9l0.2-1.9
											l0.8-7.7l22-223.4L1337.3,358.8"/>
										<path clip-path="url(#SVGID_12_)" fill="#CCCCCC" d="M1327,789.1c-7.4,3.7-15.5,7.7-24.1,11.9c-8.9,4.4-18.3,8.9-28,13.8
											l-1.6,16.6c17.7-9.2,34.7-17.3,50.4-24.7c0.5-0.3,1.1-0.5,1.6-0.8L1327,789.1"/>
										<path clip-path="url(#SVGID_12_)" fill="#CCCCCC" d="M1339.2,782.7c-3.8,2.1-7.9,4.2-12.2,6.3l-1.6,16.7
											c4.1-2,8.2-3.9,12.2-5.8L1339.2,782.7"/>
										<path clip-path="url(#SVGID_12_)" fill="#492072" d="M1348.3,562.8c-16.2,27.8-38.1,54.3-55.9,73.7l-16.5,167.7
											c7.7-3.9,15.2-7.5,22.2-10.9c34-16.6,60.9-29.7,67.6-41.2c9.2-17.1,22.5-55.4,8.1-120.6
											C1366.2,597.8,1354.7,572.5,1348.3,562.8"/>
										<path clip-path="url(#SVGID_12_)" fill="#CCCCCC" d="M1348.1,549.9c-2.7,0.2-5.1,1.6-6.5,3.7l-0.3,0.4
											c-5.8,10.7-12.7,21.3-19.9,31.5c-2,2.7-4,5.4-6,8.1c-0.5,0.7-1,1.4-1.5,2c-3.7,4.8-7.4,9.4-11,13.9
											c-2.9,3.6-5.9,7-8.8,10.4l-1.6,16.6c17.8-19.4,39.7-45.8,55.9-73.7c6.3,9.6,17.9,34.9,25.4,68.7
											c14.4,65.2,1.2,103.5-8.1,120.6c-6.7,11.5-33.6,24.6-67.6,41.2c-7,3.4-14.4,7-22.2,10.9l-1,10.6c9.7-4.9,19.1-9.4,28-13.8
											c8.6-4.2,16.7-8.1,24.1-11.9c4.3-2.2,8.4-4.3,12.2-6.3c18.5-9.9,31.6-18.7,37.1-28.2l0.1-0.1c20.6-38.1,17-86,10.4-119.5
											c-3.3-16.5-8-32.6-13-46.1c-0.9-2.6-1.9-5-2.8-7.4c-5.1-12.7-10.3-22.5-14.4-27.3C1354.5,551.9,1352,549.6,1348.1,549.9"
											/>
										<path clip-path="url(#SVGID_12_)" fill="#492072" d="M1493.3,692.3c-23.4,31.3-53.3,52.5-69,63.6
											c-3.5,2.5-7.4,5.2-8.4,6.2l-0.2,0.2l-0.4,0.4c-18.3,18.9-50.2,34.1-87.1,51.6c-17.7,8.4-36.6,17.4-56.1,27.7l-18.8,190
											c34.5-14.7,65.8-33.7,93.6-57.1c31.9-26.7,59.5-59.2,82.1-96.7c18.2-30.1,33.1-63.4,44.5-98.9
											C1485.4,743,1490.8,711.6,1493.3,692.3"/>
										<path clip-path="url(#SVGID_12_)" fill="#CCCCCC" d="M1508,648.2l-12.1,21.4c-22.7,40.3-60.4,67-78.5,79.8
											c-6.3,4.5-9.5,6.7-11.1,8.8c-14.4,14.7-39.4,27.6-68.9,41.8c-4,1.9-8,3.8-12.2,5.8c-0.5,0.3-1.1,0.5-1.6,0.8
											c-15.7,7.4-32.7,15.5-50.4,24.7l-1.1,10.7c19.4-10.3,38.4-19.3,56.1-27.7c36.9-17.5,68.8-32.7,87.1-51.6l0.4-0.4l0.2-0.2
											c1-1,4.9-3.7,8.4-6.2c15.7-11.1,45.6-32.3,69-63.6c-2.5,19.4-8,50.7-19.6,87.1c-11.4,35.6-26.4,68.9-44.5,98.9
											c-22.6,37.4-50.2,70-82.1,96.7c-27.9,23.3-59.1,42.4-93.6,57.1l-1,10.1c2.7-1.1,5.4-2.2,8.1-3.4c3.4-1.5,6.8-3,10.1-4.6
											c30.7-14.4,58.8-32.2,84.3-53.5c33-27.6,61.5-61.1,84.7-99.7c13.4-22.1,25-45.9,34.8-71c1-2.6,2-5.2,3-7.9
											c2.7-7.2,5.2-14.6,7.6-22c19.7-61.7,22-109.4,22-109.8L1508,648.2"/>
									</g>
								</g>
							</g>
						</g>
					</g>
				</g>
			</g>
		</g>
	</g>
</g>
</svg>
