<?xml version="1.0" encoding="utf-8"?>
<!-- Generator: Adobe Illustrator 19.0.0, SVG Export Plug-In . SVG Version: 6.00 Build 0)  -->
<svg version="1.1" id="Layer_1" xmlns="http://www.w3.org/2000/svg" xmlns:xlink="http://www.w3.org/1999/xlink" x="0px" y="0px"
	 viewBox="0 0 218 40" style="enable-background:new 0 0 218 40;" xml:space="preserve">
<style type="text/css">
	.st0{fill:#FFFFFF;}
</style>
<path id="nyulibraries-logo" class="st0" d="M127.6,39.4V0.9h-1.9v38.5H127.6z M50.4,9h4.5l10.3,13.5V9H70v22h-4.1L55.1,17v14h-4.8
	V9L50.4,9z M80.8,22.4L72.3,9h5.7l5.3,8.9L88.6,9h5.5l-8.5,13.3V31h-4.9L80.8,22.4L80.8,22.4z M96.1,21.3V9h4.8v12.2
	c0,3.5,1.8,5.4,4.6,5.4c3,0,4.6-1.8,4.6-5.2V9.1h4.8v12.2c0,6.6-3.7,9.8-9.5,9.8C99.6,31,96.1,27.8,96.1,21.3z M40.2,39.4H1.7V0.9
	h38.5V39.4z M19.6,34.9c0,0.3,0.6,0.4,0.8,0l1.3-10.7h-3.2L19.6,34.9L19.6,34.9z M22.8,21.9h-5.5v1.7h5.5V21.9L22.8,21.9z M21.3,21
	c7.1,0.3,7.6-6.2,7.6-8.6c0-0.1-0.1-0.1-0.1,0c-0.3,0.5-1.2,2.3-3.6,3.3C22.8,16.7,21.4,18.9,21.3,21C21.2,21,21.3,21,21.3,21
	L21.3,21z M20.5,20.6c1.2-5.3,5.4-5.5,5.8-6.4c0.6-1.5-0.5-4.4-0.8-4.8h-0.1c-0.6,1.3-1.5,2.6-2.2,3.1
	C22.3,13.2,18.5,16.1,20.5,20.6C20.4,20.6,20.5,20.6,20.5,20.6L20.5,20.6z M19.7,20.8c-2.3-5,2.3-8.2,3.1-9c0.1-0.1,0.1-0.1,0.1-0.3
	c0-1.5-0.9-4.1-1.2-4.5h-0.1c-0.4,1.5-2.6,3.9-3,4.4C15,15.7,15.9,18.4,19.7,20.8L19.7,20.8L19.7,20.8z M18.7,21
	c-4-2.3-3.6-5.7-1.9-8.2c0,0,0-0.1,0-0.3c-0.1-0.6-0.8-2.1-1-2.4c-0.1-0.1-0.1-0.1-0.1,0c0,0.6-0.8,2.3-1.9,4.2
	C12.5,16.3,12.5,20.8,18.7,21C18.7,21.1,18.7,21,18.7,21L18.7,21z"/>
<g id="XMLID_1_">
	<path id="XMLID_2_" class="st0" d="M143.1,13.2c2,0.4,3,1.2,3,2.6c0,1.6-1.3,2.6-3.1,2.6c-1.4,0-2.6-0.5-3.7-1.5l0.6-0.8
		c0.9,0.9,1.9,1.3,3.1,1.3c1.2,0,2-0.6,2-1.6c0-0.9-0.5-1.3-2.4-1.7c-2.1-0.5-3.1-1.1-3.1-2.6c0-1.5,1.3-2.5,3-2.5
		c1.3,0,2.3,0.4,3.2,1.1l-0.6,0.8c-0.8-0.7-1.7-1-2.6-1c-1.2,0-1.9,0.6-1.9,1.5C140.6,12.3,141.1,12.7,143.1,13.2z"/>
	<path id="XMLID_4_" class="st0" d="M151.6,18.4c-1.2,0-2.1-0.7-2.6-1.4v3.4h-1v-8.8h1v1.4c0.5-0.8,1.3-1.5,2.6-1.5
		c1.6,0,3.2,1.3,3.2,3.5C154.8,17.1,153.2,18.4,151.6,18.4z M151.4,12.2c-1.2,0-2.4,1-2.4,2.6c0,1.6,1.2,2.6,2.4,2.6
		c1.3,0,2.4-1,2.4-2.6C153.8,13.3,152.7,12.2,151.4,12.2z"/>
	<path id="XMLID_7_" class="st0" d="M157,12.8l-0.3-0.8c0.7-0.3,1.5-0.6,2.4-0.6c1.8,0,2.9,0.9,2.9,2.7v4.1h-1v-1
		c-0.5,0.6-1.2,1.2-2.4,1.2c-1.2,0-2.5-0.7-2.5-2.1c0-1.4,1.2-2.2,2.9-2.2c0.9,0,1.5,0.1,2.1,0.3v-0.2c0-1.2-0.7-1.8-2-1.8
		C158.3,12.3,157.6,12.5,157,12.8z M157.1,16.2c0,0.9,0.8,1.4,1.7,1.4c1.2,0,2.2-0.8,2.2-1.8v-0.6c-0.5-0.1-1.2-0.3-2-0.3
		C157.8,14.8,157.1,15.4,157.1,16.2z"/>
	<path id="XMLID_10_" class="st0" d="M165.4,16.3c0,0.8,0.5,1.1,1.1,1.1c0.3,0,0.6-0.1,1-0.2V18c-0.4,0.2-0.7,0.3-1.2,0.3
		c-1.1,0-1.9-0.5-1.9-1.9v-4.1h-0.9v-0.9h0.9v-2h1v2h2.1v0.9h-2.1V16.3z"/>
	<path id="XMLID_12_" class="st0" d="M169.4,10V8.9h1.1V10H169.4z M169.4,18.2v-6.7h1v6.7H169.4z"/>
	<path id="XMLID_15_" class="st0" d="M173.1,12.8l-0.3-0.8c0.7-0.3,1.5-0.6,2.4-0.6c1.8,0,2.9,0.9,2.9,2.7v4.1h-1v-1
		c-0.5,0.6-1.2,1.2-2.4,1.2c-1.2,0-2.5-0.7-2.5-2.1c0-1.4,1.2-2.2,2.9-2.2c0.9,0,1.5,0.1,2.1,0.3v-0.2c0-1.2-0.7-1.8-2-1.8
		C174.4,12.3,173.8,12.5,173.1,12.8z M173.3,16.2c0,0.9,0.8,1.4,1.7,1.4c1.2,0,2.2-0.8,2.2-1.8v-0.6c-0.5-0.1-1.2-0.3-2-0.3
		C174,14.8,173.3,15.4,173.3,16.2z"/>
	<path id="XMLID_18_" class="st0" d="M180.4,18.2V8.7h1v9.5H180.4z"/>
	<path id="XMLID_20_" class="st0" d="M190.9,18.2h-3.2V9.1h3.2c2.9,0,4.8,2,4.8,4.5C195.8,16.2,193.8,18.2,190.9,18.2z M190.9,10.1
		h-2.1v7.2h2.1c2.3,0,3.8-1.6,3.8-3.6C194.7,11.6,193.2,10.1,190.9,10.1z"/>
	<path id="XMLID_23_" class="st0" d="M198.2,12.8l-0.3-0.8c0.7-0.3,1.5-0.6,2.4-0.6c1.8,0,2.9,0.9,2.9,2.7v4.1h-1v-1
		c-0.5,0.6-1.2,1.2-2.4,1.2c-1.2,0-2.5-0.7-2.5-2.1c0-1.4,1.2-2.2,2.9-2.2c0.9,0,1.5,0.1,2.1,0.3v-0.2c0-1.2-0.7-1.8-2-1.8
		C199.4,12.3,198.8,12.5,198.2,12.8z M198.3,16.2c0,0.9,0.8,1.4,1.7,1.4c1.2,0,2.2-0.8,2.2-1.8v-0.6c-0.5-0.1-1.2-0.3-2-0.3
		C199,14.8,198.3,15.4,198.3,16.2z"/>
	<path id="XMLID_26_" class="st0" d="M206.6,16.3c0,0.8,0.5,1.1,1.1,1.1c0.3,0,0.6-0.1,1-0.2V18c-0.4,0.2-0.7,0.3-1.2,0.3
		c-1.1,0-1.9-0.5-1.9-1.9v-4.1h-0.9v-0.9h0.9v-2h1v2h2.1v0.9h-2.1V16.3z"/>
	<path id="XMLID_28_" class="st0" d="M210.9,12.8l-0.3-0.8c0.7-0.3,1.5-0.6,2.4-0.6c1.8,0,2.9,0.9,2.9,2.7v4.1h-1v-1
		c-0.5,0.6-1.2,1.2-2.4,1.2c-1.2,0-2.5-0.7-2.5-2.1c0-1.4,1.2-2.2,2.9-2.2c0.9,0,1.5,0.1,2.1,0.3v-0.2c0-1.2-0.7-1.8-2-1.8
		C212.1,12.3,211.5,12.5,210.9,12.8z M211,16.2c0,0.9,0.8,1.4,1.7,1.4c1.2,0,2.2-0.8,2.2-1.8v-0.6c-0.5-0.1-1.2-0.3-2-0.3
		C211.7,14.8,211,15.4,211,16.2z"/>
	<path id="XMLID_31_" class="st0" d="M146.1,31.2l-2.6-3.5h-2.6v3.5h-1v-9.1h3.9c2,0,3.3,1.1,3.3,2.7c0,1.5-1,2.4-2.5,2.7l2.8,3.7
		H146.1z M143.7,23.1h-2.8v3.7h2.8c1.4,0,2.3-0.7,2.3-1.9C146,23.7,145.1,23.1,143.7,23.1z"/>
	<path id="XMLID_34_" class="st0" d="M151.9,30.5c0.9,0,1.6-0.4,2.1-0.9l0.6,0.6c-0.7,0.8-1.5,1.3-2.8,1.3c-1.8,0-3.4-1.4-3.4-3.5
		c0-2,1.4-3.5,3.2-3.5c2,0,3.1,1.6,3.1,3.6c0,0.1,0,0.2,0,0.3h-5.3C149.7,29.7,150.7,30.5,151.9,30.5z M153.9,27.5
		c-0.1-1.2-0.8-2.3-2.1-2.3c-1.2,0-2.1,1-2.2,2.3H153.9z"/>
	<path id="XMLID_37_" class="st0" d="M160.2,31.4c-1.2,0-2.1-0.7-2.6-1.4v3.4h-1v-8.8h1v1.4c0.5-0.8,1.3-1.5,2.6-1.5
		c1.6,0,3.2,1.3,3.2,3.5C163.4,30.1,161.8,31.4,160.2,31.4z M160,25.2c-1.2,0-2.4,1-2.4,2.6c0,1.6,1.2,2.6,2.4,2.6
		c1.3,0,2.4-1,2.4-2.6C162.4,26.3,161.3,25.2,160,25.2z"/>
	<path id="XMLID_40_" class="st0" d="M168.3,31.4c-2,0-3.5-1.6-3.5-3.5s1.5-3.5,3.5-3.5c2,0,3.5,1.6,3.5,3.5S170.4,31.4,168.3,31.4z
		 M168.3,25.2c-1.5,0-2.5,1.2-2.5,2.6s1.1,2.6,2.5,2.6c1.5,0,2.5-1.2,2.5-2.6C170.8,26.4,169.8,25.2,168.3,25.2z"/>
	<path id="XMLID_43_" class="st0" d="M175.9,31.3c-1,0-2-0.4-2.8-1l0.5-0.7c0.7,0.5,1.5,0.9,2.3,0.9c0.8,0,1.4-0.4,1.4-1.1v0
		c0-0.7-0.8-0.9-1.7-1.2c-1.1-0.3-2.2-0.7-2.2-1.9v0c0-1.2,1-1.9,2.3-1.9c0.8,0,1.7,0.3,2.4,0.7l-0.5,0.8c-0.6-0.4-1.3-0.6-2-0.6
		c-0.8,0-1.3,0.4-1.3,1v0c0,0.6,0.8,0.9,1.7,1.2c1,0.3,2.2,0.7,2.2,1.9v0C178.3,30.6,177.2,31.3,175.9,31.3z"/>
	<path id="XMLID_45_" class="st0" d="M180.2,23v-1.1h1.1V23H180.2z M180.2,31.2v-6.7h1v6.7H180.2z"/>
	<path id="XMLID_48_" class="st0" d="M184.9,29.3c0,0.8,0.5,1.1,1.1,1.1c0.3,0,0.6-0.1,1-0.2V31c-0.4,0.2-0.7,0.3-1.2,0.3
		c-1.1,0-1.9-0.5-1.9-1.9v-4.1H183v-0.9h0.9v-2h1v2h2.1v0.9h-2.1V29.3z"/>
	<path id="XMLID_50_" class="st0" d="M191.7,31.4c-2,0-3.5-1.6-3.5-3.5s1.5-3.5,3.5-3.5c2,0,3.5,1.6,3.5,3.5S193.7,31.4,191.7,31.4z
		 M191.7,25.2c-1.5,0-2.5,1.2-2.5,2.6s1.1,2.6,2.5,2.6c1.5,0,2.5-1.2,2.5-2.6C194.2,26.4,193.1,25.2,191.7,25.2z"/>
	<path id="XMLID_53_" class="st0" d="M198,31.2h-1v-6.7h1v1.8c0.5-1.1,1.5-1.9,2.7-1.9v1.1h-0.1c-1.5,0-2.7,1.1-2.7,3.1V31.2z"/>
	<path id="XMLID_55_" class="st0" d="M205.6,31.4c-0.6,1.4-1.2,1.9-2.2,1.9c-0.6,0-1-0.1-1.4-0.3l0.3-0.8c0.3,0.2,0.6,0.2,1.1,0.2
		c0.6,0,1-0.3,1.4-1.3l-3.1-6.7h1.1l2.4,5.6l2.2-5.6h1.1L205.6,31.4z"/>
</g>
</svg>
